<?xml version="1.0" encoding="utf-8"?>
<!-- Generator: Adobe Illustrator 25.0.0, SVG Export Plug-In . SVG Version: 6.00 Build 0)  -->
<svg version="1.1" id="Camada_1" xmlns="http://www.w3.org/2000/svg" xmlns:xlink="http://www.w3.org/1999/xlink" x="0px" y="0px"
	 viewBox="0 0 933.3 933.3" style="enable-background:new 0 0 933.3 933.3;" xml:space="preserve">
<style type="text/css">
	.st0{fill:#E8E8E8;}
	.st1{fill:#2B4476;}
	.st2{fill:#74AC97;}
</style>
<path class="st0" d="M930.3,125.3c-3.3-15.6-6.9-25.2-14.5-40.3c-21.2-41.6-58.5-70.4-106.4-81.9c-9.5-2.3-26.4-2.4-338-2.7
	C291,0.3,141.7,0.5,139.4,0.8C119,3.3,103.3,8.1,85.1,17.5C55.6,32.6,32.7,55.5,17.6,85C10,100.1,6.4,109.7,3.1,125.3
	c-2.3,10.8-2.4,27.1-2.4,341.3S0.8,797.2,3.1,808c3.3,15.6,6.9,25.2,14.5,40.3c15.1,29.5,38,52.4,67.5,67.5
	c15.1,7.6,24.7,11.2,40.3,14.5c10.8,2.3,27.1,2.4,341.3,2.4s330.5-0.1,341.3-2.4c15.6-3.3,25.2-6.9,40.3-14.5
	c29.5-15.1,52.4-38,67.5-67.5c7.6-15.1,11.2-24.7,14.5-40.3c2.3-10.8,2.4-27.1,2.4-341.3S932.5,136.1,930.3,125.3z"/>
<path class="st1" d="M759.4,304.2L714.9,270c-0.3-0.2-0.6-0.4-0.8-0.6c-4.4-2.9-7.1-7.9-7.1-13.2V226l40.2,31.1
	c0.3,0.2,0.6,0.4,0.9,0.6c7.3,4.8,11.7,13,11.6,21.8L759.4,304.2z M229.1,765.1V531.7h378.7c8.1,0,14.6-6.5,14.6-14.6
	c0-8.1-6.5-14.6-14.6-14.6H229.1V283.8c0-23.4,19.1-42.5,42.5-42.5h284.4c23.4,0,42.5,19.1,42.5,42.5v218.8h-38.5
	c-8.1,0-14.6,6.5-14.6,14.6c0,8.1,6.5,14.6,14.6,14.6h38.5v233.4H229.1z M788.8,279.8c0.1-18.5-8.9-35.7-24.2-46.1l-52.8-40.9
	c-1-1.5-2.3-2.8-3.9-3.8l-74.2-49c-6.7-4.4-15.8-2.6-20.2,4.1c-4.4,6.7-2.6,15.8,4.1,20.2l60.1,39.7v52.2c0,15,7.4,28.8,19.7,37.2
	l62.4,47.9v290c0,19.2-15.6,34.8-34.8,34.8c-19.2,0-34.8-15.6-34.8-34.8V456.5c0-32.5-26.4-58.9-58.9-58.9h-3.7V283.7
	c0-39.5-32.2-71.7-71.7-71.7H271.6c-39.5,0-71.7,32.2-71.7,71.7v481.4h-39.3c-8.1,0-14.6,6.5-14.6,14.6c0,8.1,6.5,14.6,14.6,14.6
	h53.9H613h53.9c8.1,0,14.6-6.5,14.6-14.6c0-8.1-6.5-14.6-14.6-14.6h-39.3V426.7h3.7c16.4,0,29.7,13.3,29.7,29.7v174.8
	c0,35.3,28.7,64,64,64c35.3,0,64-28.7,64-64V333.6c0-1.4-0.2-2.7-0.6-3.9L788.8,279.8z"/>
<path class="st2" d="M533.3,431.6c0,5.3-4.3,9.6-9.6,9.6H303.7c-5.3,0-9.6-4.3-9.6-9.6V315.9c0-5.3,4.3-9.6,9.6-9.6h220.1
	c5.3,0,9.6,4.3,9.6,9.6V431.6z M562.5,431.6V315.9c0-21.4-17.4-38.8-38.8-38.8H303.7c-21.4,0-38.8,17.4-38.8,38.8v115.7
	c0,21.4,17.4,38.8,38.8,38.8h220.1C545.1,470.3,562.5,453,562.5,431.6"/>
<path class="st2" d="M276.9,648.4c0,8.1,6.5,14.6,14.6,14.6H536c8.1,0,14.6-6.5,14.6-14.6c0-8.1-6.5-14.6-14.6-14.6H291.5
	C283.4,633.8,276.9,640.4,276.9,648.4"/>
</svg>
