<?xml version="1.0" encoding="utf-8"?>
<!-- Generator: Adobe Illustrator 25.0.0, SVG Export Plug-In . SVG Version: 6.00 Build 0)  -->
<svg version="1.1" id="Camada_1" xmlns="http://www.w3.org/2000/svg" xmlns:xlink="http://www.w3.org/1999/xlink" x="0px" y="0px"
	 viewBox="0 0 933.3 933.3" style="enable-background:new 0 0 933.3 933.3;" xml:space="preserve">
<style type="text/css">
	.st0{fill:#E8E8E8;}
	.st1{fill:#2B4476;}
	.st2{fill:#74AC97;}
</style>
<path class="st0" d="M930.3,125.3c-3.3-15.6-6.9-25.2-14.5-40.3c-21.2-41.6-58.5-70.4-106.4-81.9c-9.5-2.3-26.4-2.4-338-2.7
	C291,0.3,141.7,0.5,139.4,0.8C119,3.3,103.3,8.1,85.1,17.5C55.6,32.6,32.7,55.5,17.6,85C10,100.1,6.4,109.7,3.1,125.3
	c-2.3,10.8-2.4,27.1-2.4,341.3S0.8,797.2,3.1,808c3.3,15.6,6.9,25.2,14.5,40.3c15.1,29.5,38,52.4,67.5,67.5
	c15.1,7.6,24.7,11.2,40.3,14.5c10.8,2.3,27.1,2.4,341.3,2.4s330.5-0.1,341.3-2.4c15.6-3.3,25.2-6.9,40.3-14.5
	c29.5-15.1,52.4-38,67.5-67.5c7.6-15.1,11.2-24.7,14.5-40.3c2.3-10.8,2.4-27.1,2.4-341.3S932.5,136.1,930.3,125.3z"/>
<g>
	<path class="st1" d="M692.5,713H244.4c-3.1,0-5.7-2.5-5.7-5.7V409.5c0-3.3,2.7-6,6-6H693c3.4,0,6.1,2.8,6.1,6.1v296.6
		C699.2,710,696.2,713,692.5,713 M244.7,255.2h75.8v27c0,12.2,11.1,21.8,23.7,19.3c9.3-1.9,15.7-10.6,15.7-20.1v-26.2h218.2v25.9
		c0,10.7,8,20.2,18.7,20.8c11.4,0.6,20.7-8.4,20.7-19.7v-27h75.4c3.5,0,6.3,2.8,6.3,6.3v96.4c0,3.5-2.8,6.3-6.3,6.3H244.1
		c-3,0-5.3-2.4-5.3-5.4V261C238.8,257.8,241.4,255.2,244.7,255.2 M718.9,215.8H617.5v-27c0-10.9-8.8-19.7-19.7-19.7
		c-10.9,0-19.7,8.8-19.7,19.7v27H359.8v-27c0-10.9-8.8-19.7-19.7-19.7c-10.8,0-19.7,8.8-19.7,19.7v27H219.1
		c-10.9,0-19.7,8.8-19.7,19.7v497.2c0,10.8,8.8,19.7,19.7,19.7h499.8c10.8,0,19.7-8.9,19.7-19.7V235.5
		C738.6,224.6,729.7,215.8,718.9,215.8"/>
	<path class="st1" d="M244.7,258.7c-1.3,0-2.3,1-2.3,2.3v97.7c0,1,0.8,1.8,1.8,1.8h448.7c1.5,0,2.8-1.2,2.8-2.8v-96.4
		c0-1.5-1.2-2.7-2.7-2.7H621v23.5c0,6.4-2.6,12.4-7.2,16.9c-4.7,4.4-10.7,6.7-17.2,6.4c-12.2-0.6-22.1-11.5-22.1-24.3v-22.4H363.4
		v22.7c0,11.5-7.8,21.4-18.6,23.6c-7,1.4-14-0.4-19.4-4.8c-5.4-4.4-8.5-11-8.5-18v-23.5H244.7z M692.9,367.7H244.1
		c-4.9,0-8.9-4-8.9-8.9V261c0-5.2,4.2-9.4,9.4-9.4H324v30.5c0,4.9,2.2,9.4,5.9,12.5c3.8,3.1,8.7,4.3,13.5,3.3
		c7.4-1.5,12.8-8.5,12.8-16.6v-29.8h225.3v29.5c0,9.1,6.9,16.8,15.3,17.2c4.6,0.2,8.7-1.4,12-4.4c3.2-3.1,5-7.2,5-11.7v-30.5h79
		c5.4,0,9.8,4.4,9.8,9.8v96.4C702.7,363.3,698.3,367.7,692.9,367.7 M244.8,407.1c-1.4,0-2.5,1.1-2.5,2.5v297.8
		c0,1.2,0.9,2.1,2.1,2.1h448.1c1.7,0,3.1-1.4,3.1-3.1V409.7c0-1.4-1.2-2.6-2.6-2.6H244.8z M692.5,716.5H244.4
		c-5.1,0-9.2-4.1-9.2-9.2V409.5c0-5.3,4.3-9.5,9.6-9.5H693c5.3,0,9.7,4.4,9.7,9.7v296.6C702.7,711.9,698.1,716.5,692.5,716.5
		 M219.1,219.3c-8.9,0-16.2,7.2-16.2,16.2v497.2c0,8.9,7.2,16.2,16.2,16.2h499.8c8.9,0,16.2-7.2,16.2-16.2V235.5
		c0-8.9-7.2-16.2-16.2-16.2h-105v-30.5c0-8.9-7.2-16.2-16.2-16.2c-8.9,0-16.2,7.2-16.2,16.2v30.5H356.3v-30.5
		c0-8.9-7.2-16.2-16.2-16.2c-8.9,0-16.2,7.2-16.2,16.2v30.5H219.1z M718.9,755.9H219.1c-12.8,0-23.3-10.4-23.3-23.3V235.5
		c0-12.8,10.4-23.3,23.3-23.3h97.8v-23.4c0-12.8,10.4-23.3,23.3-23.3s23.3,10.4,23.3,23.3v23.4h211.2v-23.4
		c0-12.8,10.4-23.3,23.2-23.3c12.8,0,23.3,10.4,23.3,23.3v23.4h97.9c12.8,0,23.3,10.4,23.3,23.3v497.2
		C742.1,745.5,731.7,755.9,718.9,755.9"/>
	<path class="st2" d="M416.6,656.2c-7.2,0-13.1-5.9-13.1-13.1V494.8h-23c-7.3,0-13.1-5.9-13.1-13.1c0-7.2,5.9-13.1,13.1-13.1h36.2
		c7.3,0,13.1,5.9,13.1,13.1v161.3C429.8,650.3,423.9,656.2,416.6,656.2"/>
	<path class="st2" d="M543.3,656.2c-7.3,0-13.1-5.9-13.1-13.1V494.8h-23c-7.3,0-13.1-5.9-13.1-13.1c0-7.2,5.9-13.1,13.1-13.1h36.2
		c7.2,0,13.1,5.9,13.1,13.1v161.3C556.5,650.3,550.6,656.2,543.3,656.2"/>
</g>
</svg>
