<?xml version="1.0" encoding="utf-8"?>
<!-- Generator: Adobe Illustrator 25.0.0, SVG Export Plug-In . SVG Version: 6.00 Build 0)  -->
<svg version="1.1" id="Camada_1" xmlns="http://www.w3.org/2000/svg" xmlns:xlink="http://www.w3.org/1999/xlink" x="0px" y="0px"
	 viewBox="0 0 933.3 933.3" style="enable-background:new 0 0 933.3 933.3;" xml:space="preserve">
<style type="text/css">
	.st0{fill:#E8E8E8;}
	.st1{fill:#2B4476;}
	.st2{fill:#74AC97;}
</style>
<path class="st0" d="M930.3,125.3c-3.3-15.6-6.9-25.2-14.5-40.3c-21.2-41.6-58.5-70.4-106.4-81.9c-9.5-2.3-26.4-2.4-338-2.7
	C291,0.3,141.7,0.5,139.4,0.8C119,3.3,103.3,8.1,85.1,17.5C55.6,32.6,32.7,55.5,17.6,85C10,100.1,6.4,109.7,3.1,125.3
	c-2.3,10.8-2.4,27.1-2.4,341.3S0.8,797.2,3.1,808c3.3,15.6,6.9,25.2,14.5,40.3c15.1,29.5,38,52.4,67.5,67.5
	c15.1,7.6,24.7,11.2,40.3,14.5c10.8,2.3,27.1,2.4,341.3,2.4s330.5-0.1,341.3-2.4c15.6-3.3,25.2-6.9,40.3-14.5
	c29.5-15.1,52.4-38,67.5-67.5c7.6-15.1,11.2-24.7,14.5-40.3c2.3-10.8,2.4-27.1,2.4-341.3S932.5,136.1,930.3,125.3z"/>
<g>
	<path class="st1" d="M472.9,635.2c-3.9,0-7,3.1-7,7c0,3.9,3.1,7,7,7h153.6c3.9,0,7-3.1,7-7c0-3.9-3.1-7-7-7H472.9z M472.9,453.7
		c-3.9,0-7,3.1-7,7c0,3.9,3.1,7,7,7h153.6c3.9,0,7-3.1,7-7c0-3.9-3.1-7-7-7H472.9z M472.9,272.2c-3.9,0-7,3.1-7,7c0,3.9,3.1,7,7,7
		h153.6c3.9,0,7-3.1,7-7c0-3.9-3.1-7-7-7H472.9z M263.4,160.5h391c11.7,0,20.9,9.2,20.9,20.9v558.5c0,11.7-9.2,20.9-20.9,20.9h-391
		c-11.7,0-20.9-9.2-20.9-20.9V181.4C242.5,169.7,251.7,160.5,263.4,160.5 M263.4,146.5c-19.2,0-34.9,15.7-34.9,34.9v558.5
		c0,19.2,15.7,34.9,34.9,34.9h391c19.2,0,34.9-15.7,34.9-34.9V181.4c0-19.2-15.7-34.9-34.9-34.9H263.4z"/>
	<path class="st1" d="M472.9,275.7c-1.9,0-3.5,1.6-3.5,3.5c0,1.9,1.6,3.5,3.5,3.5h153.6c1.9,0,3.5-1.6,3.5-3.5
		c0-1.9-1.6-3.5-3.5-3.5H472.9z M626.5,289.6H472.9c-5.8,0-10.5-4.7-10.5-10.5c0-5.8,4.7-10.5,10.5-10.5h153.6
		c5.8,0,10.5,4.7,10.5,10.5C637,284.9,632.3,289.6,626.5,289.6 M472.9,457.2c-1.9,0-3.5,1.6-3.5,3.5c0,1.9,1.6,3.5,3.5,3.5h153.6
		c1.9,0,3.5-1.6,3.5-3.5c0-1.9-1.6-3.5-3.5-3.5H472.9z M626.5,471.1H472.9c-5.8,0-10.5-4.7-10.5-10.5c0-5.8,4.7-10.5,10.5-10.5
		h153.6c5.8,0,10.5,4.7,10.5,10.5C637,466.4,632.3,471.1,626.5,471.1 M472.9,638.7c-1.9,0-3.5,1.6-3.5,3.5c0,1.9,1.6,3.5,3.5,3.5
		h153.6c1.9,0,3.5-1.6,3.5-3.5c0-1.9-1.6-3.5-3.5-3.5H472.9z M626.5,652.7H472.9c-5.8,0-10.5-4.7-10.5-10.5
		c0-5.8,4.7-10.5,10.5-10.5h153.6c5.8,0,10.5,4.7,10.5,10.5C637,648,632.3,652.7,626.5,652.7 M263.4,164c-9.8,0-17.5,7.7-17.5,17.5
		v558.5c0,9.8,7.7,17.4,17.5,17.4h391c9.8,0,17.5-7.7,17.5-17.4V181.4c0-9.8-7.7-17.5-17.5-17.5H263.4z M654.4,764.4h-391
		c-13.7,0-24.4-10.7-24.4-24.4V181.4c0-13.7,10.7-24.4,24.4-24.4h391c13.7,0,24.4,10.7,24.4,24.4v558.5
		C678.8,753.6,668.1,764.4,654.4,764.4 M263.4,150c-17.3,0-31.4,14.1-31.4,31.4v558.5c0,17.3,14.1,31.4,31.4,31.4h391
		c17.3,0,31.4-14.1,31.4-31.4V181.4c0-17.3-14.1-31.4-31.4-31.4H263.4z M654.4,778.3h-391c-21.2,0-38.4-17.2-38.4-38.4V181.4
		c0-21.2,17.2-38.4,38.4-38.4h391c21.2,0,38.4,17.2,38.4,38.4v558.5C692.8,761.1,675.6,778.3,654.4,778.3"/>
	<path class="st2" d="M444.3,376.7c-2,0.2-3.9,1.4-5,3.1l-58.9,85.1l-36.2-24c-3-2.1-7.7-1.2-9.7,1.8c-2.1,3-1.2,7.7,1.9,9.7
		l41.9,27.9c3,2,7.5,1.2,9.6-1.7l62.8-90.8C453.9,383.5,449.7,376.1,444.3,376.7z"/>
	<path class="st2" d="M340.3,443.2c-0.3,0-0.5,0-0.8,0.1c-1,0.2-1.8,0.7-2.3,1.4c-0.5,0.7-0.6,1.6-0.4,2.6c0.2,1,0.7,1.8,1.4,2.3
		l41.9,27.9c1.4,1,3.8,0.5,4.8-0.9l62.8-90.7c0.9-1.1,0.5-2.7-0.1-3.7c-0.6-1-1.7-2.1-3-2c-1,0.1-1.9,0.7-2.5,1.5l-60.9,87.9
		l-39.1-25.9C341.7,443.4,341,443.2,340.3,443.2 M381.9,484.9c-2,0-4-0.5-5.7-1.7l-41.9-27.9c-2.2-1.5-3.8-4-4.4-6.7
		c-0.5-2.8,0-5.6,1.5-7.9c1.5-2.2,4-3.8,6.8-4.3c2.8-0.5,5.7,0,7.9,1.6l33.3,22.1l57-82.3c1.7-2.5,4.5-4.2,7.5-4.5h0
		c3.9-0.4,7.6,1.7,9.8,5.5c2.2,3.8,2,8.1-0.3,11.2l-62.8,90.7C388.7,483.4,385.3,484.9,381.9,484.9"/>
	<path class="st2" d="M410.1,684.1H298.4v-83.8h111.7V684.1z M417,586.3H291.4c-4.4,0.1-7,4.1-7,7v97.7c0,3.6,3.3,7,7,7H417
		c3.7,0,7-3.3,7-7v-97.7C424,589.7,420.7,586.3,417,586.3"/>
	<path class="st2" d="M301.8,680.6h104.7v-76.8H301.8V680.6z M413.5,687.6H294.9v-90.8h118.7V687.6z M291.4,589.8
		c-2.4,0-3.5,2.5-3.5,3.5v97.8c0,1.7,1.8,3.5,3.5,3.5H417c1.7,0,3.5-1.8,3.5-3.5v-97.7c0-1.7-1.8-3.5-3.5-3.5H291.4z M417,701.5
		H291.4c-5.6,0-10.5-4.9-10.5-10.5v-97.7c0-4.9,4.2-10.4,10.4-10.5H417c5.6,0,10.5,4.9,10.5,10.5v97.7
		C427.5,696.6,422.6,701.5,417,701.5"/>
	<path class="st2" d="M410.1,321H298.4v-83.8h111.7V321z M417,223.3H291.4c-4.4,0.1-7,4.1-7,7V328c0,3.6,3.3,7,7,7H417
		c3.7,0,7-3.3,7-7v-97.7C424,226.6,420.7,223.3,417,223.3"/>
	<path class="st2" d="M301.8,317.5h104.7v-76.8H301.8V317.5z M413.5,324.5H294.9v-90.8h118.7V324.5z M291.4,226.8
		c-2.4,0-3.5,2.5-3.5,3.5V328c0,1.7,1.8,3.5,3.5,3.5H417c1.7,0,3.5-1.8,3.5-3.5v-97.7c0-1.7-1.8-3.5-3.5-3.5H291.4z M417,338.5
		H291.4c-5.6,0-10.5-4.9-10.5-10.5v-97.7c0-4.9,4.2-10.4,10.4-10.5H417c5.6,0,10.5,4.9,10.5,10.5V328
		C427.5,333.6,422.6,338.5,417,338.5"/>
	<path class="st2" d="M291.4,390.9c-4.2,0-7,3.6-7,7v125.7c0,3.7,3.3,7,7,7H417c3.7,0,7-3.3,7-7v-14c0.1-3.7-3.3-7-7-7
		c-3.7,0-7,3.3-7,7v7H298.4V404.8h76.8c3.7,0.1,7-3.3,7-7c0-3.7-3.3-7-7-7H291.4z"/>
	<path class="st2" d="M375.2,394.3L375.2,394.3h-83.9c-2.2,0-3.5,2.1-3.5,3.5v125.6c0,1.7,1.8,3.5,3.5,3.5H417
		c1.7,0,3.5-1.8,3.5-3.5v-14c0-0.9-0.4-1.7-1-2.4c-1.4-1.4-3.5-1.4-4.9,0c-0.7,0.7-1.1,1.5-1,2.3V520H294.9V401.3h80.3
		c0.7-0.2,1.7-0.4,2.4-1c0.7-0.7,1.1-1.6,1.1-2.5c0-0.9-0.4-1.8-1.1-2.5C376.8,394.7,376,394.3,375.2,394.3 M417,534H291.4
		c-5.6,0-10.5-4.9-10.5-10.5V397.8c0-5.1,4.1-10.5,10.5-10.5h83.8c2.7,0,5.3,1.1,7.3,3c2,2,3.2,4.7,3.2,7.4c0,2.7-1.2,5.4-3.2,7.5
		c-2,2-4.6,3.1-7.3,3h-73.2V513h104.7v-3.5c0-2.6,1.1-5.3,3-7.3c4-4.1,10.9-4.1,14.9,0c2,2,3.1,4.7,3,7.3v13.9
		C427.5,529.1,422.6,534,417,534"/>
</g>
</svg>
