<?xml version="1.0" encoding="utf-8"?>
<!-- Generator: Adobe Illustrator 24.2.3, SVG Export Plug-In . SVG Version: 6.00 Build 0)  -->
<svg version="1.1" id="Camada_1" xmlns="http://www.w3.org/2000/svg" xmlns:xlink="http://www.w3.org/1999/xlink" x="0px" y="0px"
	 viewBox="0 0 577 135" style="enable-background:new 0 0 577 135;" xml:space="preserve">
<style type="text/css">
	.st0{fill:#124278;}
	.st1{fill:#4EAE98;}
</style>
<g>
	<path class="st0" d="M122,112.8c0,0.4-0.3,0.6-0.6,0.6h-7.8v6.9c0,0.4-0.3,0.6-0.6,0.6h-2.7c-0.4,0-0.6-0.3-0.6-0.6v-19.2
		c0-0.3,0.3-0.6,0.6-0.6H124c0.3,0,0.6,0.3,0.6,0.6v2.3c0,0.3-0.3,0.6-0.6,0.6h-10.5v5.8h7.8c0.4,0,0.6,0.3,0.6,0.6V112.8z"/>
	<path class="st0" d="M158.6,100.5c0.3,0,0.6,0.3,0.6,0.6v2.3c0,0.4-0.3,0.6-0.6,0.6h-11.1v4.8h5.8c0.4,0,0.6,0.3,0.6,0.6v2.2
		c0,0.4-0.3,0.6-0.6,0.6h-5.8v4.9h11.3c0.3,0,0.6,0.3,0.6,0.6v2.3c0,0.4-0.3,0.6-0.6,0.6h-14.6c-0.4,0-0.6-0.3-0.6-0.6v-19.2
		c0-0.3,0.3-0.6,0.6-0.6H158.6z"/>
	<path class="st0" d="M182.4,111.8v6.1h5.8c1.9,0,3.4-1.2,3.4-3c0-1.9-1.5-3-3.4-3H182.4z M187.5,103.6h-5.1v5.2h5.1
		c2,0,3.1-1.1,3.1-2.6C190.5,104.7,189.4,103.6,187.5,103.6 M188,100.5c4.8,0,6.6,2.8,6.6,5.2c0,1.9-0.9,3.5-2.8,4.2
		c2.7,0.9,3.8,3,3.8,5.1c0,3-2.4,6-6.9,6H179c-0.3,0-0.6-0.3-0.6-0.6v-19.3c0-0.3,0.2-0.6,0.6-0.6H188z"/>
	<path class="st0" d="M224,110c2,0,3.4-1.2,3.4-3.1c0-1.8-1.3-2.9-3.3-2.9h-5.3v6H224z M228.6,121c-0.5,0-0.8-0.2-1-0.6l-4.3-7.2
		h-4.5v7.2c0,0.4-0.3,0.6-0.6,0.6h-2.7c-0.3,0-0.6-0.3-0.6-0.6v-19.2c0-0.3,0.2-0.6,0.6-0.6h9c4.3,0,7.1,2.7,7.1,6.2
		c0,1.9-1,4.8-4.2,5.8l4.8,7.7c0.2,0.3,0,0.8-0.4,0.8H228.6z"/>
	<path class="st0" d="M258.7,104.7h-0.1l-2.7,8h5.6L258.7,104.7z M253.2,120.5c-0.1,0.4-0.4,0.6-0.6,0.6h-2.9
		c-0.4,0-0.7-0.4-0.5-0.9l6.8-19c0.1-0.4,0.5-0.6,0.8-0.6h3.9c0.3,0,0.7,0.2,0.8,0.6l6.8,19c0.2,0.6-0.1,0.9-0.6,0.9h-3.1
		c-0.3,0-0.5-0.2-0.6-0.6l-1.5-4.4h-7.9L253.2,120.5z"/>
	<path class="st0" d="M290.9,111.8v6.1h5.8c1.9,0,3.4-1.2,3.4-3c0-1.9-1.5-3-3.4-3H290.9z M296,103.6h-5.1v5.2h5.1
		c2,0,3.1-1.1,3.1-2.6C299.1,104.7,298,103.6,296,103.6 M296.5,100.5c4.8,0,6.6,2.8,6.6,5.2c0,1.9-0.9,3.5-2.8,4.2
		c2.7,0.9,3.8,3,3.8,5.1c0,3-2.4,6-6.9,6h-9.7c-0.4,0-0.6-0.3-0.6-0.6v-19.3c0-0.3,0.2-0.6,0.6-0.6H296.5z"/>
	<path class="st0" d="M330.6,104.7h-0.1l-2.7,8h5.6L330.6,104.7z M325.1,120.5c-0.1,0.4-0.4,0.6-0.6,0.6h-2.9
		c-0.4,0-0.7-0.4-0.5-0.9l6.8-19c0.1-0.4,0.5-0.6,0.8-0.6h3.9c0.3,0,0.7,0.2,0.8,0.6l6.8,19c0.2,0.6-0.1,0.9-0.6,0.9h-3.1
		c-0.3,0-0.5-0.2-0.6-0.6l-1.5-4.4h-7.9L325.1,120.5z"/>
	<path class="st0" d="M362.8,106.7v13.7c0,0.4-0.3,0.6-0.6,0.6h-2.7c-0.4,0-0.6-0.3-0.6-0.6v-19.3c0-0.3,0.3-0.6,0.6-0.6h3.5
		c0.3,0,0.7,0.1,0.9,0.5l8.6,13.5v-13.4c0-0.3,0.3-0.6,0.6-0.6h2.7c0.3,0,0.6,0.3,0.6,0.6v19.3c0,0.4-0.3,0.6-0.6,0.6h-2.9
		c-0.6,0-1-0.2-1.3-0.6L362.8,106.7z"/>
	<path class="st0" d="M128.1,71.8c-0.9,0-1.4-0.2-1.9-1.3l-7-15.8v24.2c0,0.8-0.5,1.3-1.3,1.3h-7.1c-0.8,0-1.3-0.5-1.3-1.3V43.5
		c0-0.7,0.5-1.3,1.4-1.3h11.6c0.8,0,1.5,0.2,1.9,1.2l6.5,15.7l6.5-15.7c0.4-1,1.1-1.2,1.9-1.2h11.3c0.8,0,1.4,0.6,1.4,1.3v35.4
		c0,0.8-0.5,1.3-1.3,1.3h-7.1c-0.8,0-1.3-0.5-1.3-1.3V54.7l-7,15.8c-0.5,1.1-1,1.3-1.9,1.3H128.1z"/>
	<path class="st0" d="M175.9,63.3c-0.8-2.4-2.8-3.4-4.6-3.4c-1.9,0-3.8,1.1-4.6,3.4H175.9z M185.1,65.9v1.7c0,0.8-0.3,1.4-1.5,1.4
		h-17.1c0.4,2.6,2.6,4.1,4.9,4.1c2.2,0,3.5-0.8,4.8-2.1c0.4-0.4,0.8-0.7,1.5-0.3l5.5,3.4c0.7,0.4,0.5,1.3,0.2,1.7
		c-2.1,3-6.1,5.3-12.2,5.3c-8.7,0-14.5-6.3-14.5-14.1c0-8.1,6-14.5,14.5-14.5C180.1,52.5,185.1,59.3,185.1,65.9"/>
	<path class="st0" d="M198.1,68.1c0,2.8,1.2,4.9,4.4,4.9c3,0,4.4-2,4.4-4.8V54.4c0-0.7,0.7-1.1,1.3-1.1h6.8c0.7,0,1.2,0.5,1.2,1.2
		V79c0,0.7-0.5,1.2-1.2,1.2h-6.8c-0.7,0-1.3-0.5-1.3-1.1v-1c-1.7,1.6-3.5,2.9-7.4,2.9c-6.7,0-10.8-4.6-10.8-11.3V54.4
		c0-0.7,0.7-1.1,1.3-1.1h6.8c0.7,0,1.3,0.5,1.3,1.1V68.1z"/>
	<path class="st0" d="M243.2,64.1v8.5h8.9c3,0,4.7-2,4.7-4.3c0-2.3-1.7-4.2-4.7-4.2H243.2z M250.8,49.7h-7.6V57h7.6
		c3.1,0,4.3-1.8,4.3-3.6C255.2,51.6,253.9,49.7,250.8,49.7 M252.3,42.2c9.8,0,12.9,5.7,12.9,9.8c0,2.7-1.1,5.9-4.8,7.6
		c5.2,1.9,6.6,6,6.6,9.3c0,5.7-4.5,11.4-12.9,11.4h-19.3c-0.8,0-1.4-0.5-1.4-1.3V43.5c0-0.7,0.5-1.3,1.4-1.3H252.3z"/>
	<path class="st0" d="M285,72.3c3,0,5.4-2.4,5.4-5.5c0-3-2.3-5.5-5.4-5.5c-3,0-5.4,2.5-5.4,5.5C279.6,69.8,282,72.3,285,72.3
		 M285,52.5c8.3,0,14.9,6.4,14.9,14.4c0,7.9-6.6,14.2-14.9,14.2c-8.3,0-14.9-6.3-14.9-14.2C270.1,58.8,276.7,52.5,285,52.5"/>
	<path class="st0" d="M311.1,80.2c-5.5,0-7.3-3.2-7.3-6.8V43.5c0-0.7,0.6-1.3,1.3-1.3h6.8c0.7,0,1.2,0.6,1.2,1.3v27.9
		c0,0.6,0.4,1.1,1,1.1h1.8c0.6,0,1.2,0.3,1.2,1.2v4.9c0,1.5-1.1,1.6-1.7,1.6H311.1z"/>
	<path class="st0" d="M343.6,55.9c1,0.8,1,1.7,0.1,2.8l-2.5,2.7c-0.8,0.9-1.7,0.9-2.9,0.2c-1.5-0.9-3.6-1.9-5.8-1.9
		c-1.4,0-2.4,0.5-2.4,1.2c0,0.8,0.6,1.2,2.6,1.6l4,0.8c4.3,0.9,8.5,2.9,8.5,8.3c0,5.2-4.6,9.5-12.4,9.5c-4.3,0-7.8-1.1-10.1-2.6
		c-3-1.9-3.3-3.8-1.8-4.9l3.1-2.3c1.4-1,2.2-0.5,3,0.2c1.6,1.3,3.6,2.4,6,2.4c1.7,0,2.6-0.7,2.6-1.4c0-1-1-1.4-3.2-1.8l-4.6-1
		c-4.5-1-7.4-3.5-7.4-8c0-4.9,4.3-9.1,11.9-9.1C338.1,52.5,342,54.5,343.6,55.9"/>
	<path class="st0" d="M363.1,72.3c3,0,5.4-2.4,5.4-5.5c0-3-2.3-5.5-5.4-5.5c-3,0-5.4,2.5-5.4,5.5C357.7,69.8,360.1,72.3,363.1,72.3
		 M363.1,52.5c8.3,0,14.9,6.4,14.9,14.4c0,7.9-6.6,14.2-14.9,14.2c-8.3,0-14.9-6.3-14.9-14.2C348.2,58.8,354.9,52.5,363.1,52.5"/>
	<path class="st0" d="M411.5,63.3c-0.8-2.4-2.8-3.4-4.6-3.4c-1.9,0-3.8,1.1-4.6,3.4H411.5z M420.7,65.9v1.7c0,0.8-0.3,1.4-1.5,1.4
		h-17.1c0.4,2.6,2.6,4.1,4.9,4.1c2.2,0,3.5-0.8,4.8-2.1c0.4-0.4,0.8-0.7,1.5-0.3l5.5,3.4c0.7,0.4,0.5,1.3,0.2,1.7
		c-2.1,3-6.1,5.3-12.2,5.3c-8.7,0-14.5-6.3-14.5-14.1c0-8.1,6-14.5,14.5-14.5C415.7,52.5,420.7,59.3,420.7,65.9"/>
	<path class="st0" d="M434,79.1c0,0.7-0.7,1.1-1.3,1.1h-6.8c-0.7,0-1.2-0.5-1.2-1.2V54.5c0-0.7,0.5-1.2,1.2-1.2h6.8
		c0.7,0,1.3,0.5,1.3,1.1v1c1.7-1.6,4.5-2.9,7.7-2.9c3.6,0,6.3,1.5,8,3.7c2.8-2.8,6.2-3.7,9-3.7c8.3,0,11.8,6,11.8,11.3v15.3
		c0,0.7-0.7,1.1-1.3,1.1h-6.8c-0.7,0-1.3-0.5-1.3-1.1V66c0-2.6-1.2-4.8-4.3-4.8c-3,0-4.5,2.2-4.5,4.8v13c0,0.7-0.6,1.1-1.3,1.1h-6.8
		c-0.7,0-1.3-0.5-1.3-1.1V66c0-2.6-1.2-4.8-4.3-4.8c-3,0-4.5,2.2-4.5,4.8V79.1z"/>
	<path class="st0" d="M504.6,71.2c5.4,0,9.1-4.8,9.1-10.2c0-5.3-3.7-9.9-9.1-9.9h-7.6v20.1H504.6z M504.8,42.2
		c11.2,0,19.1,7.6,19.1,18.9c0,11.4-7.9,19.1-19.1,19.1h-16.2c-0.8,0-1.4-0.5-1.4-1.4V43.5c0-0.7,0.5-1.3,1.4-1.3H504.8z"/>
	<path class="st0" d="M529.5,80.2c-0.7,0-1.3-0.6-1.3-1.3V54.5c0-0.7,0.6-1.2,1.3-1.2h6.8c0.7,0,1.2,0.5,1.2,1.2v24.4
		c0,0.7-0.5,1.3-1.2,1.3H529.5z M527.5,46.1c0-2.9,2.5-5.4,5.4-5.4c2.9,0,5.4,2.5,5.4,5.4c0,2.9-2.5,5.4-5.4,5.4
		C530,51.5,527.5,49,527.5,46.1"/>
	<path class="st0" d="M556.6,72.3c3.1,0,5.4-2.5,5.4-5.5c0-3-2.3-5.5-5.4-5.5c-3,0-5.4,2.5-5.4,5.5
		C551.1,69.8,553.6,72.3,556.6,72.3 M555.2,52.5c3.3,0,5.8,1.2,6.9,2.9v-0.8c0-0.7,0.6-1.2,1.2-1.2h6.8c0.7,0,1.2,0.5,1.2,1.2V79
		c0,0.7-0.5,1.2-1.2,1.2h-6.8c-0.7,0-1.2-0.5-1.2-1.2v-0.8c-1.1,1.7-3.7,2.9-7,2.9c-6.8,0-13.4-5.5-13.4-14.4
		C541.7,57.8,548.3,52.5,555.2,52.5"/>
	<path class="st0" d="M21,31.2h34.3c1.3,0,1.8,1.7,0.7,2.3l-11.2,6.9c-0.2,0.1-0.4,0.2-0.7,0.2H21c-0.7,0-1.3-0.6-1.3-1.3v-6.9
		C19.7,31.8,20.3,31.2,21,31.2"/>
	<path class="st1" d="M107.2,8.4L15.8,64.8c-0.8,0.5-1.9-0.1-1.9-1.1V33.5c0-1-1.1-1.6-2-1.1L5,36.7c-0.4,0.2-0.6,0.6-0.6,1.1v32.8
		c0,0.4,0.2,0.8,0.6,1.1l8.2,5.1c0.4,0.3,0.9,0.3,1.3,0l94.1-58c0.4-0.2,0.6-0.6,0.6-1.1l0-8.1C109.2,8.5,108.1,7.9,107.2,8.4"/>
	<path class="st0" d="M84.5,80.7V42.9c0-1-1.1-1.5-1.9-1l-7,4.3c-0.4,0.2-0.6,0.6-0.6,1.1v33c0,19.8-16,33.9-35.5,30.7
		C26.7,108.8,16.6,98.8,14.3,86c-0.2-0.9-1.2-1.4-2-0.9L6.2,89c-0.5,0.3-0.7,0.8-0.6,1.3c4.3,17.4,20.1,30.4,38.9,30.4
		C66.6,120.7,84.5,102.8,84.5,80.7L84.5,80.7z"/>
</g>
</svg>
