<?xml version="1.0" encoding="utf-8"?>
<!-- Generator: Adobe Illustrator 24.2.3, SVG Export Plug-In . SVG Version: 6.00 Build 0)  -->
<svg version="1.1" id="Camada_1" xmlns="http://www.w3.org/2000/svg" xmlns:xlink="http://www.w3.org/1999/xlink" x="0px" y="0px"
	 viewBox="0 0 595.3 286" style="enable-background:new 0 0 595.3 286;" xml:space="preserve">
<style type="text/css">
	.st0{fill:#FFFFFF;}
	.st1{fill:#4EAE98;}
</style>
<path class="st0" d="M191.7,256.3c0,0.5-0.4,1-0.9,1h-11.9v10.5c0,0.5-0.4,1-1,1h-4c-0.5,0-0.9-0.4-0.9-1v-29.2
	c0-0.5,0.4-0.9,0.9-0.9h21c0.5,0,1,0.4,1,1v3.6c0,0.5-0.4,0.9-1,0.9h-16v8.8h11.9c0.5,0,0.9,0.4,0.9,0.9V256.3z"/>
<path class="st0" d="M247.3,237.6c0.5,0,0.9,0.4,0.9,1v3.6c0,0.5-0.4,0.9-0.9,0.9h-16.9v7.3h8.8c0.5,0,0.9,0.4,0.9,1v3.4
	c0,0.5-0.4,1-0.9,1h-8.8v7.5h17.2c0.5,0,1,0.4,1,0.9v3.6c0,0.5-0.4,1-1,1h-22.2c-0.5,0-0.9-0.4-0.9-1v-29.2c0-0.5,0.4-0.9,0.9-0.9
	H247.3z"/>
<path class="st0" d="M283.5,254.8v9.3h8.8c2.8,0,5.2-1.8,5.2-4.6c0-2.9-2.3-4.6-5.2-4.6H283.5z M291.2,242.4h-7.7v8h7.7
	c3,0,4.7-1.6,4.7-4C295.9,244,294.3,242.4,291.2,242.4 M292,237.6c7.3,0,10,4.3,10,7.9c0,2.8-1.4,5.3-4.2,6.5
	c4.1,1.4,5.8,4.5,5.8,7.7c0,4.6-3.6,9.1-10.4,9.1h-14.8c-0.5,0-0.9-0.4-0.9-0.9v-29.3c0-0.5,0.4-0.9,0.9-0.9H292z"/>
<path class="st0" d="M346.7,252c3.1,0,5.2-1.9,5.2-4.7c0-2.7-2-4.5-5.1-4.5h-8.1v9.1H346.7z M353.7,268.8c-0.8,0-1.2-0.3-1.6-1
	l-6.6-10.9h-6.9v10.9c0,0.5-0.4,1-0.9,1h-4.1c-0.5,0-0.9-0.4-0.9-1v-29.2c0-0.5,0.3-0.9,0.9-0.9h13.7c6.6,0,10.8,4,10.8,9.4
	c0,2.8-1.5,7.3-6.5,8.8l7.3,11.7c0.4,0.5,0,1.2-0.7,1.2H353.7z"/>
<path class="st0" d="M399.4,244.1h-0.2l-4.1,12.1h8.5L399.4,244.1z M391.1,268c-0.2,0.6-0.5,0.8-1,0.8h-4.4c-0.7,0-1.1-0.5-0.8-1.4
	l10.3-28.8c0.2-0.7,0.8-0.9,1.2-0.9h6c0.5,0,1,0.3,1.2,0.9l10.4,28.8c0.3,0.9-0.1,1.4-0.8,1.4h-4.7c-0.5,0-0.8-0.3-1-0.8l-2.3-6.7
	h-11.9L391.1,268z"/>
<path class="st0" d="M448.4,254.8v9.3h8.8c2.8,0,5.2-1.8,5.2-4.6c0-2.9-2.3-4.6-5.2-4.6H448.4z M456.2,242.4h-7.7v8h7.7
	c3,0,4.7-1.6,4.7-4C460.8,244,459.2,242.4,456.2,242.4 M457,237.6c7.3,0,10,4.3,10,7.9c0,2.8-1.4,5.3-4.2,6.5
	c4.1,1.4,5.8,4.5,5.8,7.7c0,4.6-3.6,9.1-10.4,9.1h-14.8c-0.5,0-0.9-0.4-0.9-0.9v-29.3c0-0.5,0.4-0.9,0.9-0.9H457z"/>
<path class="st0" d="M508.7,244.1h-0.2l-4.1,12.1h8.5L508.7,244.1z M500.4,268c-0.2,0.6-0.5,0.8-1,0.8H495c-0.7,0-1.1-0.5-0.8-1.4
	l10.3-28.8c0.2-0.7,0.8-0.9,1.2-0.9h6c0.5,0,1,0.3,1.2,0.9l10.4,28.8c0.3,0.9-0.1,1.4-0.8,1.4h-4.7c-0.5,0-0.8-0.3-1-0.8l-2.3-6.7
	h-11.9L500.4,268z"/>
<path class="st0" d="M557.7,247.1v20.8c0,0.5-0.4,0.9-0.9,0.9h-4.1c-0.5,0-0.9-0.4-0.9-0.9v-29.3c0-0.5,0.4-0.9,0.9-0.9h5.3
	c0.5,0,1,0.2,1.4,0.8l13,20.5v-20.3c0-0.5,0.4-0.9,0.9-0.9h4.1c0.5,0,1,0.4,1,0.9v29.3c0,0.5-0.5,0.9-1,0.9H573
	c-0.9,0-1.5-0.3-1.9-0.9L557.7,247.1z"/>
<path class="st0" d="M200.8,106.3c-1.4,0-2.1-0.2-2.9-2l-10.6-24v36.8c0,1.2-0.7,2-2,2h-10.7c-1.2,0-2-0.7-2-2V63.3
	c0-1.1,0.8-2,2.1-2h17.6c1.2,0,2.2,0.2,2.9,1.8l9.8,23.8l9.9-23.8c0.7-1.6,1.7-1.8,2.9-1.8H235c1.2,0,2.1,0.9,2.1,2v53.9
	c0,1.2-0.7,2-2,2h-10.7c-1.2,0-2-0.7-2-2V80.3l-10.6,24c-0.7,1.7-1.5,2-2.9,2H200.8z"/>
<path class="st0" d="M273.3,93.5c-1.2-3.7-4.3-5.1-6.9-5.1c-2.9,0-5.8,1.7-7,5.1H273.3z M287.4,97.4v2.6c0,1.2-0.4,2.1-2.3,2.1h-26
	c0.6,4,4,6.2,7.5,6.2c3.3,0,5.4-1.2,7.3-3.1c0.6-0.6,1.2-1.1,2.2-0.5l8.4,5.1c1.1,0.7,0.7,2,0.3,2.6c-3.2,4.5-9.3,8-18.5,8
	c-13.2,0-22-9.5-22-21.4c0-12.3,9.1-22,22-22C279.8,77,287.4,87.4,287.4,97.4"/>
<path class="st0" d="M307.1,100.8c0,4.3,1.8,7.5,6.7,7.5c4.5,0,6.7-3.1,6.7-7.3V80c0-1,1-1.7,2-1.7h10.4c1.1,0,1.9,0.8,1.9,1.9v37.1
	c0,1.1-0.8,1.9-1.9,1.9h-10.4c-1,0-2-0.7-2-1.7v-1.5c-2.6,2.4-5.3,4.5-11.2,4.5c-10.2,0-16.4-6.9-16.4-17.2V80c0-1,1-1.7,2-1.7h10.3
	c1,0,2,0.7,2,1.7V100.8z"/>
<path class="st0" d="M375.6,94.7v13h13.5c4.5,0,7.2-3,7.2-6.5c0-3.5-2.6-6.4-7.2-6.4H375.6z M387.2,72.8h-11.6v11.1h11.6
	c4.7,0,6.6-2.8,6.6-5.5C393.8,75.6,391.9,72.8,387.2,72.8 M389.5,61.3c14.9,0,19.6,8.6,19.6,14.9c0,4-1.7,8.9-7.3,11.5
	c7.9,2.9,10,9.2,10,14.1c0,8.6-6.9,17.3-19.7,17.3h-29.3c-1.2,0-2.1-0.7-2.1-2V63.3c0-1.1,0.7-2,2.1-2H389.5z"/>
<path class="st0" d="M439.2,107.1c4.6,0,8.3-3.7,8.3-8.3c0-4.6-3.6-8.4-8.3-8.4c-4.5,0-8.3,3.8-8.3,8.4
	C430.9,103.4,434.5,107.1,439.2,107.1 M439.2,77c12.6,0,22.6,9.7,22.6,21.8c0,12-10.1,21.6-22.6,21.6c-12.6,0-22.6-9.6-22.6-21.6
	C416.5,86.7,426.6,77,439.2,77"/>
<path class="st0" d="M478.8,119.1c-8.3,0-11.1-4.8-11.1-10.4V63.3c0-1.1,0.9-2,2-2h10.4c1.1,0,1.9,0.9,1.9,2v42.4
	c0,0.9,0.7,1.7,1.6,1.7h2.8c0.9,0,1.8,0.4,1.8,1.8v7.5c0,2.2-1.7,2.5-2.6,2.5H478.8z"/>
<path class="st0" d="M528.1,82.2c1.5,1.2,1.6,2.6,0.2,4.2l-3.8,4.1c-1.2,1.3-2.6,1.3-4.5,0.2c-2.3-1.3-5.5-2.9-8.8-2.9
	c-2.1,0-3.6,0.7-3.6,1.8c0,1.2,0.9,1.8,3.9,2.4l6,1.2c6.5,1.3,13,4.5,13,12.6c0,7.9-6.9,14.4-18.9,14.4c-6.6,0-11.8-1.7-15.4-4
	c-4.6-2.9-5-5.7-2.7-7.4l4.7-3.5c2.1-1.6,3.4-0.8,4.6,0.2c2.4,2,5.4,3.7,9.1,3.7c2.6,0,4-1.1,4-2.1c0-1.6-1.6-2.1-4.8-2.8l-6.9-1.5
	c-6.9-1.6-11.2-5.4-11.2-12.2c0-7.5,6.5-13.8,18-13.8C519.8,77,525.7,80.1,528.1,82.2"/>
<path class="st0" d="M557.8,107.1c4.6,0,8.3-3.7,8.3-8.3c0-4.6-3.6-8.4-8.3-8.4c-4.5,0-8.3,3.8-8.3,8.4
	C549.6,103.4,553.2,107.1,557.8,107.1 M557.8,77c12.6,0,22.6,9.7,22.6,21.8c0,12-10.1,21.6-22.6,21.6c-12.6,0-22.6-9.6-22.6-21.6
	C535.2,86.7,545.3,77,557.8,77"/>
<path class="st0" d="M199.1,175.2c-1.2-3.7-4.3-5.1-6.9-5.1c-2.9,0-5.8,1.7-7,5.1H199.1z M213.1,179.2v2.6c0,1.2-0.4,2.1-2.3,2.1
	h-26c0.6,4,4,6.2,7.5,6.2c3.3,0,5.4-1.2,7.3-3.1c0.6-0.6,1.2-1.1,2.2-0.5l8.4,5.1c1.1,0.7,0.7,2,0.3,2.6c-3.2,4.5-9.3,8-18.5,8
	c-13.2,0-22-9.5-22-21.4c0-12.3,9.1-22,22-22C205.5,158.8,213.1,169.2,213.1,179.2"/>
<path class="st0" d="M233.3,199.2c0,1-1,1.7-2,1.7h-10.4c-1.1,0-1.9-0.8-1.9-1.9v-37.1c0-1.1,0.8-1.9,1.9-1.9h10.4c1,0,2,0.7,2,1.7
	v1.5c2.6-2.4,6.8-4.5,11.6-4.5c5.5,0,9.6,2.2,12.1,5.6c4.2-4.3,9.4-5.6,13.6-5.6c12.6,0,17.9,9.1,17.9,17.1v23.3c0,1-1,1.7-2,1.7
	h-10.3c-1,0-2-0.7-2-1.7v-19.8c0-4-1.9-7.4-6.5-7.4c-4.6,0-6.9,3.4-6.9,7.4v19.8c0,1-1,1.7-2,1.7h-10.3c-1,0-2-0.7-2-1.7v-19.8
	c0-4-1.9-7.4-6.5-7.4c-4.6,0-6.9,3.4-6.9,7.4V199.2z"/>
<path class="st0" d="M336,187.3c8.3,0,13.9-7.4,13.9-15.4c0-8.1-5.6-15.1-13.9-15.1h-11.5v30.6H336z M336.3,143.1
	c17,0,29.1,11.5,29.1,28.7c0,17.3-12.1,29.1-29.1,29.1h-24.6c-1.2,0-2.1-0.8-2.1-2.1v-53.8c0-1.1,0.8-2,2.1-2H336.3z"/>
<path class="st0" d="M373.8,200.9c-1.1,0-2-0.9-2-2v-37c0-1.1,0.9-1.9,2-1.9h10.4c1.1,0,1.9,0.8,1.9,1.9v37c0,1.1-0.8,2-1.9,2H373.8
	z M370.9,149.1c0-4.4,3.8-8.2,8.2-8.2c4.4,0,8.2,3.8,8.2,8.2c0,4.4-3.8,8.2-8.2,8.2C374.7,157.3,370.9,153.5,370.9,149.1"/>
<path class="st0" d="M415,188.9c4.7,0,8.3-3.8,8.3-8.4c0-4.6-3.6-8.4-8.3-8.4c-4.5,0-8.3,3.8-8.3,8.4
	C406.7,185.1,410.4,188.9,415,188.9 M412.8,158.8c5,0,8.8,1.8,10.5,4.4v-1.2c0-1.1,0.9-1.9,1.9-1.9h10.3c1.1,0,1.9,0.8,1.9,1.9V199
	c0,1.1-0.8,1.9-1.9,1.9h-10.3c-1.1,0-1.9-0.8-1.9-1.9v-1.2c-1.7,2.6-5.6,4.4-10.6,4.4c-10.3,0-20.4-8.3-20.4-21.8
	C392.3,166.9,402.4,158.8,412.8,158.8"/>
<path class="st0" d="M38.7,47.3h52.1c1.9,0,2.7,2.5,1,3.6l-17,10.5c-0.3,0.2-0.7,0.3-1,0.3H38.7c-1.1,0-1.9-0.9-1.9-1.9V49.2
	C36.8,48.2,37.6,47.3,38.7,47.3"/>
<path class="st1" d="M169.7,12.6L30.8,98.3c-1.3,0.8-2.9-0.1-2.9-1.6V50.8c0-1.5-1.7-2.5-3-1.7l-10.5,6.5c-0.6,0.4-0.9,1-0.9,1.6
	V107c0,0.7,0.3,1.3,0.9,1.6l12.4,7.7c0.6,0.4,1.4,0.4,2,0l142.9-88.2c0.6-0.4,0.9-1,0.9-1.6l0-12.2C172.7,12.8,171,11.8,169.7,12.6"
	/>
<path class="st0" d="M135.1,122.5V65c0-1.5-1.6-2.3-2.8-1.6L121.7,70c-0.6,0.4-0.9,1-0.9,1.7v50.1c0,30-24.4,51.4-54,46.6
	c-19.4-3.2-34.8-18.4-38.2-37.8c-0.2-1.4-1.8-2.1-3-1.3l-9.5,5.8c-0.7,0.4-1,1.3-0.8,2c6.6,26.5,30.5,46.2,59,46.2
	C107.9,183.3,135.1,156,135.1,122.5L135.1,122.5z"/>
</svg>
