<?xml version="1.0" encoding="utf-8"?>
<!-- Generator: Adobe Illustrator 25.0.0, SVG Export Plug-In . SVG Version: 6.00 Build 0)  -->
<svg version="1.1" id="Camada_1" xmlns="http://www.w3.org/2000/svg" xmlns:xlink="http://www.w3.org/1999/xlink" x="0px" y="0px"
	 viewBox="0 0 933.3 933.3" style="enable-background:new 0 0 933.3 933.3;" xml:space="preserve">
<style type="text/css">
	.st0{fill:#E8E8E8;}
	.st1{fill:#2B4476;}
	.st2{fill:#74AC97;}
</style>
<path class="st0" d="M930.3,125.3c-3.3-15.6-6.9-25.2-14.5-40.3c-21.2-41.6-58.5-70.4-106.4-81.9c-9.5-2.3-26.4-2.4-338-2.7
	C291,0.3,141.7,0.5,139.4,0.8C119,3.3,103.3,8.1,85.1,17.5C55.6,32.6,32.7,55.5,17.6,85C10,100.1,6.4,109.7,3.1,125.3
	c-2.3,10.8-2.4,27.1-2.4,341.3S0.8,797.2,3.1,808c3.3,15.6,6.9,25.2,14.5,40.3c15.1,29.5,38,52.4,67.5,67.5
	c15.1,7.6,24.7,11.2,40.3,14.5c10.8,2.3,27.1,2.4,341.3,2.4s330.5-0.1,341.3-2.4c15.6-3.3,25.2-6.9,40.3-14.5
	c29.5-15.1,52.4-38,67.5-67.5c7.6-15.1,11.2-24.7,14.5-40.3c2.3-10.8,2.4-27.1,2.4-341.3S932.5,136.1,930.3,125.3z"/>
<g>
	<path class="st1" d="M718.8,712.6h65.5c11.5,0,20.9-9.4,20.9-20.9c0.1-1.1,0.1-2.3,0-3.4l-46.1-274.4L718.8,712.6z M784.3,736.2
		h-79c-3.4,0-6.6-1.5-8.9-4c-2.2-2.6-3.3-6-2.8-9.3l52.7-389.7c0.8-5.9,5.8-10.3,11.7-10.3c5.9-0.1,10.9,4.1,11.8,9.9l59,351.5
		c0.2,2.4,0.2,4.9,0,7.3C828.8,716.3,808.9,736.2,784.3,736.2"/>
	<path class="st1" d="M294,535.5l-28.5,211c-0.4,3.4,0.6,6.8,2.8,9.3c2.2,2.5,5.5,4,8.9,4h401.5c6,0.1,11-4.4,11.8-10.3l47.2-345.9
		l-44.5,89v1.2c-13.6,26.2-40.9,42.3-70.4,41.6H294z M678.3,783.5H276.8c-19.6,0.2-35.6-15.5-35.7-35.1c0-1.7,0.1-3.4,0.3-5
		l29.9-221.2c0.8-5.9,5.8-10.3,11.8-10.3h339.8c19.9-0.1,38-11.2,47.2-28.8v-0.9l76.2-152.3c3-5.8,10.1-8,15.9-5
		c4.4,2.3,6.9,7,6.3,11.9l-55,416.1C711.1,770.4,696.1,783.5,678.3,783.5"/>
	<path class="st1" d="M287.1,405.6h246.6c19.6,0,35.4,15.9,35.4,35.4v17c0.1,29.7,24.2,53.7,53.8,53.8c19.9-0.1,38-11.2,47.2-28.8
		v-0.9l68.7-135.6H316.6L287.1,405.6z M622.9,535.5c-42.8,0-77.5-34.7-77.5-77.5v-17c0-6.5-5.3-11.8-11.8-11.8H267.9
		c-6.5,0-11.8-5.3-11.8-11.8c0-1.8,0.4-3.6,1.3-5.3l41.3-82.7c2-4,6.1-6.5,10.5-6.5H758c6.5,0,11.8,5.3,11.8,11.8
		c0,1.8-0.4,3.6-1.3,5.3l-76.3,152.7v1.2C678.8,519.7,652,535.8,622.9,535.5"/>
	<path class="st1" d="M132.1,429.2c-6.5,0-11.8,5.3-11.8,11.8v17c0.1,29.7,24.2,53.7,53.8,53.8h393.1c-14-14.4-21.9-33.7-21.8-53.8
		v-17c0-6.5-5.3-11.8-11.8-11.8H132.1z M622.9,535.5H174.2c-42.8,0-77.5-34.7-77.5-77.5v-17c0-19.6,15.9-35.4,35.4-35.4h401.5
		c19.6,0,35.4,15.9,35.4,35.4v17c0.1,29.7,24.2,53.7,53.8,53.8c6.5,0,11.8,5.3,11.8,11.8C634.7,530.2,629.4,535.5,622.9,535.5"/>
	<path class="st1" d="M267.9,429.2c-1.9,0-3.7-0.4-5.3-1.3c-5.8-2.9-8.1-10-5.2-15.8l41.3-82.7c2.5-6,9.4-8.9,15.4-6.4
		c6,2.5,8.9,9.4,6.4,15.4c-0.2,0.5-0.5,1.1-0.8,1.6l-41.3,82.7C276.5,426.7,272.4,429.2,267.9,429.2"/>
	<path class="st2" d="M380.1,582.7h-35.4c-6.5,0-11.8-5.3-11.8-11.8c0-6.5,5.3-11.8,11.8-11.8h35.4c6.5,0,11.8,5.3,11.8,11.8
		C391.9,577.5,386.6,582.7,380.1,582.7"/>
	<path class="st2" d="M474.6,582.7h-35.4c-6.5,0-11.8-5.3-11.8-11.8c0-6.5,5.3-11.8,11.8-11.8h35.4c6.5,0,11.8,5.3,11.8,11.8
		C486.4,577.5,481.1,582.7,474.6,582.7"/>
	<path class="st2" d="M569.1,582.7h-35.4c-6.5,0-11.8-5.3-11.8-11.8c0-6.5,5.3-11.8,11.8-11.8h35.4c6.5,0,11.8,5.3,11.8,11.8
		C580.9,577.5,575.6,582.7,569.1,582.7"/>
	<path class="st2" d="M663.5,582.7h-35.4c-6.5,0-11.8-5.3-11.8-11.8c0-6.5,5.3-11.8,11.8-11.8h35.4c6.5,0,11.8,5.3,11.8,11.8
		C675.3,577.5,670,582.7,663.5,582.7"/>
	<path class="st2" d="M368.3,641.8h-35.4c-6.5,0-11.8-5.3-11.8-11.8c0-6.5,5.3-11.8,11.8-11.8h35.4c6.5,0,11.8,5.3,11.8,11.8
		C380.1,636.5,374.8,641.8,368.3,641.8"/>
	<path class="st2" d="M462.8,641.8h-35.4c-6.5,0-11.8-5.3-11.8-11.8c0-6.5,5.3-11.8,11.8-11.8h35.4c6.5,0,11.8,5.3,11.8,11.8
		C474.6,636.5,469.3,641.8,462.8,641.8"/>
	<path class="st2" d="M557.3,641.8h-35.4c-6.5,0-11.8-5.3-11.8-11.8c0-6.5,5.3-11.8,11.8-11.8h35.4c6.5,0,11.8,5.3,11.8,11.8
		C569.1,636.5,563.8,641.8,557.3,641.8"/>
	<path class="st2" d="M651.7,641.8h-35.4c-6.5,0-11.8-5.3-11.8-11.8c0-6.5,5.3-11.8,11.8-11.8h35.4c6.5,0,11.8,5.3,11.8,11.8
		C663.5,636.5,658.2,641.8,651.7,641.8"/>
	<path class="st2" d="M356.5,700.8h-35.4c-6.5,0-11.8-5.3-11.8-11.8c0-6.5,5.3-11.8,11.8-11.8h35.4c6.5,0,11.8,5.3,11.8,11.8
		C368.3,695.5,363,700.8,356.5,700.8"/>
	<path class="st2" d="M451,700.8h-35.4c-6.5,0-11.8-5.3-11.8-11.8c0-6.5,5.3-11.8,11.8-11.8H451c6.5,0,11.8,5.3,11.8,11.8
		C462.8,695.5,457.5,700.8,451,700.8"/>
	<path class="st2" d="M545.4,700.8H510c-6.5,0-11.8-5.3-11.8-11.8c0-6.5,5.3-11.8,11.8-11.8h35.4c6.5,0,11.8,5.3,11.8,11.8
		C557.3,695.5,552,700.8,545.4,700.8"/>
	<path class="st2" d="M639.9,700.8h-35.4c-6.5,0-11.8-5.3-11.8-11.8c0-6.5,5.3-11.8,11.8-11.8h35.4c6.5,0,11.8,5.3,11.8,11.8
		C651.7,695.5,646.4,700.8,639.9,700.8"/>
	<path class="st1" d="M321.1,252.1c-6.5,0-11.8,5.3-11.8,11.8v47.2c0,6.5,5.3,11.8,11.8,11.8h425.1c6.5,0,11.8-5.3,11.8-11.8v-47.2
		c0-6.5-5.3-11.8-11.8-11.8H321.1z M746.2,346.6H321.1c-19.6,0-35.4-15.9-35.4-35.4v-47.2c0-19.6,15.9-35.4,35.4-35.4h425.1
		c19.6,0,35.4,15.9,35.4,35.4v47.2C781.6,330.7,765.8,346.6,746.2,346.6"/>
	<path class="st2" d="M414.6,311.1c-32.6,0-59-26.4-59-59c-0.1-5.1,0.6-10.1,2-15c8.3-31.5,40.6-50.4,72.1-42.1
		c17.6,4.6,31.9,17.1,39.1,33.4l-27.7,0c-8.6-9.6-22.2-14.2-35.5-10.6c-12.3,3.3-21.9,12.9-25.2,25.2c-0.8,2.9-1.2,6-1.2,9.1
		c0,19.6,15.9,35.4,35.4,35.4c6.5,0,11.8,5.3,11.8,11.8C426.4,305.9,421.1,311.1,414.6,311.1"/>
	<path class="st2" d="M652.7,311.1c-32.6,0-59-26.4-59-59c-0.1-5.1,0.6-10.1,2-15c8.3-31.5,40.6-50.4,72.1-42.1
		c17.6,4.6,31.9,17.1,39.1,33.4l-27.7,0c-8.6-9.6-22.2-14.2-35.5-10.6c-12.3,3.3-21.9,12.9-25.2,25.2c-0.8,2.9-1.2,6-1.2,9.1
		c0,19.6,15.9,35.4,35.4,35.4c6.5,0,11.8,5.3,11.8,11.8C664.5,305.9,659.2,311.1,652.7,311.1"/>
</g>
</svg>
