<?xml version="1.0" encoding="utf-8"?>
<!-- Generator: Adobe Illustrator 25.0.0, SVG Export Plug-In . SVG Version: 6.00 Build 0)  -->
<svg version="1.1" id="Camada_1" xmlns="http://www.w3.org/2000/svg" xmlns:xlink="http://www.w3.org/1999/xlink" x="0px" y="0px"
	 viewBox="0 0 933.3 933.3" style="enable-background:new 0 0 933.3 933.3;" xml:space="preserve">
<style type="text/css">
	.st0{fill:#E8E8E8;}
	.st1{fill:#74AC97;}
	.st2{fill:#2B4476;}
</style>
<path class="st0" d="M930.3,125.3c-3.3-15.6-6.9-25.2-14.5-40.3c-21.2-41.6-58.5-70.4-106.4-81.9c-9.5-2.3-26.4-2.4-338-2.7
	C291,0.3,141.7,0.5,139.4,0.8C119,3.3,103.3,8.1,85.1,17.5C55.6,32.6,32.7,55.5,17.6,85C10,100.1,6.4,109.7,3.1,125.3
	c-2.3,10.8-2.4,27.1-2.4,341.3S0.8,797.2,3.1,808c3.3,15.6,6.9,25.2,14.5,40.3c15.1,29.5,38,52.4,67.5,67.5
	c15.1,7.6,24.7,11.2,40.3,14.5c10.8,2.3,27.1,2.4,341.3,2.4s330.5-0.1,341.3-2.4c15.6-3.3,25.2-6.9,40.3-14.5
	c29.5-15.1,52.4-38,67.5-67.5c7.6-15.1,11.2-24.7,14.5-40.3c2.3-10.8,2.4-27.1,2.4-341.3S932.5,136.1,930.3,125.3z"/>
<g>
	<path class="st1" d="M505.2,472.1c0,6.1-5,11.1-11.1,11.1c-6.1,0-11.1-5-11.1-11.1c0-6.1,5-11.1,11.1-11.1
		C500.3,461,505.2,466,505.2,472.1 M527.4,472.1c0-18.4-14.9-33.3-33.3-33.3c-18.4,0-33.3,14.9-33.3,33.3
		c0,18.4,14.9,33.3,33.3,33.3C512.5,505.4,527.4,490.5,527.4,472.1"/>
	<path class="st2" d="M636.5,510.3L636.5,510.3c2.7-5.5,0.5-12.1-5-14.9c-5.5-2.7-12.1-0.5-14.9,5l-1.2,2.3
		c-2.4,4.8-6.3,8.7-11.1,11.1c-12.3,6.1-27.2,1.2-33.3-11.1l-1.2-2.3c-2.7-5.5-9.4-7.7-14.9-5c-5.5,2.7-7.7,9.4-5,14.9l1.2,2.3
		c4.5,9.1,11.9,16.5,21,21c23.2,11.6,51.4,2.2,63-21L636.5,510.3z"/>
	<path class="st2" d="M660.8,659.6c5.4,0,10-4,10.6-9.5c0.6-5.8-3.6-11.1-9.4-11.8l-41.7-4.6l-23.6-19.8c-4.5-3.8-11.2-3.2-15,1.3
		c-3.8,4.5-3.2,11.2,1.3,15l28.5,24l48.1,5.3C660.1,659.6,660.5,659.6,660.8,659.6"/>
	<path class="st2" d="M726.7,578.1l-43.2-86.4V461c-0.1-81.6-63.2-149.2-144.5-154.9c1.2,9.5,0.2,17.8-0.5,22.2
		c69.3,5.5,122.7,63.2,122.8,132.7v33.3c0,1.7,0.4,3.4,1.2,5l39.4,78.8l-34.5,17.2c-3.8,1.9-6.1,5.7-6.1,9.9V645l-18.9,18.9
		c-2.1,2.1-3.2,4.9-3.2,7.8v23.6c0,5.4-4.3,9.7-9.7,9.7h-73.9l-63.2-73.8c-4-4.7-11-5.2-15.6-1.2c-4.7,4-5.2,11-1.2,15.6l63.9,74.5
		v62.5H364l14.9-82c3.6-20,0.1-40.6-10-58.3c-19.2-33.6-29.3-71.6-29.3-110.4v-28.6c0-38.2,9.9-75.8,28.6-109.1h-25.1
		c-16.9,33.9-25.7,71.2-25.7,109.1v28.6c0,42.6,11.1,84.4,32.2,121.4c7.5,13.1,10.1,28.4,7.4,43.3l-17.3,95c-0.1,0.7-0.2,1.3-0.2,2
		c0,6.1,5,11.1,11.1,11.1h199.7c6.1,0,11.1-5,11.1-11.1v-66.6h67.9c17.6,0,31.9-14.3,31.9-31.9v-19l18.9-18.9
		c2.1-2.1,3.2-4.9,3.2-7.8v-37.5l38.2-19.1C727.2,590.2,729.4,583.5,726.7,578.1"/>
	<path class="st1" d="M282.6,372.3c-23.6,0-44.6-14.9-52.4-37.2c-10.1-28.9,5.2-60.5,34.2-70.6c4.1-1.4,7.1-5.2,7.4-9.6
		c2.2-25.8,17-48.8,39.6-61.3c37.5-20.9,84.7-7.4,105.6,30c2.4,4.2,7.2,6.4,11.9,5.4c23-4.7,45.8,9.3,51.9,32c0.8,3,2.8,5.5,5.5,6.9
		c18.1,9.7,29.3,28.5,29.3,48.9c0,30.6-24.8,55.5-55.5,55.5H282.6z M426.8,416.6c-6.1,0-11.1-5-11.1-11.1c0-6.1,5-11.1,11.1-11.1
		c6.1,0,11.1,5,11.1,11.1C437.9,411.7,432.9,416.6,426.8,416.6 M374.6,394.4h20.9c-2.5,7.2-2.5,15,0,22.2
		c6.1,17.3,25.1,26.4,42.5,20.3c17.3-6.1,26.4-25.1,20.3-42.5h1.9c38.4-0.1,71.1-28.2,76.8-66.2c0,0,0,0,0.1,0
		c0.7-4.4,1.6-12.6,0.5-22.2c-0.1,0-0.3,0-0.4,0c-3.2-22.9-16.5-43.2-36.2-55.4c-9.3-26.8-34.5-44.8-62.9-44.8
		c-1.9,0-3.7,0.1-5.6,0.2c-15.5-23.4-40.2-39.2-67.9-43.4c-54.5-8.4-105.5,28.9-113.9,83.4c-27.7,12.6-45.6,40.2-45.6,70.7
		c0,42.9,34.8,77.6,77.7,77.6h48.6h10.3h25.1H374.6z"/>
</g>
</svg>
