<?xml version="1.0" encoding="utf-8"?>
<!-- Generator: Adobe Illustrator 25.0.0, SVG Export Plug-In . SVG Version: 6.00 Build 0)  -->
<svg version="1.1" id="Camada_1" xmlns="http://www.w3.org/2000/svg" xmlns:xlink="http://www.w3.org/1999/xlink" x="0px" y="0px"
	 viewBox="0 0 933.3 933.3" style="enable-background:new 0 0 933.3 933.3;" xml:space="preserve">
<style type="text/css">
	.st0{fill:#E8E8E8;}
	.st1{fill:#2B4476;}
	.st2{fill:#73AB97;}
</style>
<path class="st0" d="M930.3,125.3c-3.3-15.6-6.9-25.2-14.5-40.3c-21.2-41.6-58.5-70.4-106.4-81.9c-9.5-2.3-26.4-2.4-338-2.7
	C291,0.3,141.7,0.5,139.4,0.8C119,3.3,103.3,8.1,85.1,17.5C55.6,32.6,32.7,55.5,17.6,85C10,100.1,6.4,109.7,3.1,125.3
	c-2.3,10.8-2.4,27.1-2.4,341.3S0.8,797.2,3.1,808c3.3,15.6,6.9,25.2,14.5,40.3c15.1,29.5,38,52.4,67.5,67.5
	c15.1,7.6,24.7,11.2,40.3,14.5c10.8,2.3,27.1,2.4,341.3,2.4s330.5-0.1,341.3-2.4c15.6-3.3,25.2-6.9,40.3-14.5
	c29.5-15.1,52.4-38,67.5-67.5c7.6-15.1,11.2-24.7,14.5-40.3c2.3-10.8,2.4-27.1,2.4-341.3S932.5,136.1,930.3,125.3z"/>
<path class="st1" d="M324.4,283.9h187.9c6.9,0,9.7,9,3.6,13l-61.3,37.9c-1.1,0.7-2.5,1.1-3.6,1.1H324.4c-4,0-6.9-3.2-6.9-6.9v-38.2
	C317.5,287.2,320.4,283.9,324.4,283.9"/>
<path class="st2" d="M796.9,158.7l-501,309.1c-4.7,2.9-10.5-0.4-10.5-5.8V296.5c0-5.4-6.1-9-10.8-6.1l-37.9,23.4
	c-2.2,1.4-3.2,3.6-3.2,5.8v179.6c0,2.5,1.1,4.7,3.2,5.8l44.7,27.8c2.2,1.4,5.1,1.4,7.2,0l515.5-318.2c2.2-1.4,3.2-3.6,3.2-5.8v-44
	C807.8,159.5,801.6,155.8,796.9,158.7"/>
<path class="st1" d="M672.1,555.2V347.8c0-5.4-5.8-8.3-10.1-5.8l-38.2,23.8c-2.2,1.4-3.2,3.6-3.2,6.1v180.7
	c0,108.2-88,185.4-194.8,168.1c-70-11.5-125.5-66.4-137.8-136.4c-0.7-5.1-6.5-7.6-10.8-4.7l-34.3,20.9c-2.5,1.4-3.6,4.7-2.9,7.2
	c23.8,95.6,110,166.7,212.8,166.7C574,774.5,672.1,676,672.1,555.2L672.1,555.2z"/>
</svg>
