<?xml version="1.0" encoding="utf-8"?>
<!-- Generator: Adobe Illustrator 24.2.3, SVG Export Plug-In . SVG Version: 6.00 Build 0)  -->
<svg version="1.1" id="Camada_1" xmlns="http://www.w3.org/2000/svg" xmlns:xlink="http://www.w3.org/1999/xlink" x="0px" y="0px"
	 viewBox="0 0 933.3 933.3" style="enable-background:new 0 0 933.3 933.3;" xml:space="preserve">
<path d="M930.3,125.3c-3.3-15.6-6.9-25.2-14.5-40.3c-21.2-41.6-58.5-70.4-106.4-81.9c-9.5-2.3-26.4-2.4-338-2.7
	c-180.4-0.1-329.7,0.1-332,0.4c-20.4,2.5-36.1,7.3-54.3,16.7c-29.5,15.1-52.4,38-67.5,67.5C10,100.1,6.4,109.7,3.1,125.3
	c-2.3,10.8-2.4,27.1-2.4,341.3S0.8,797.2,3.1,808c3.3,15.6,6.9,25.2,14.5,40.3c15.1,29.5,38,52.4,67.5,67.5
	c15.1,7.6,24.7,11.2,40.3,14.5c10.8,2.3,27.1,2.4,341.3,2.4s330.5-0.1,341.3-2.4c15.6-3.3,25.2-6.9,40.3-14.5
	c29.5-15.1,52.4-38,67.5-67.5c7.6-15.1,11.2-24.7,14.5-40.3c2.3-10.8,2.4-27.1,2.4-341.3S932.5,136.1,930.3,125.3z M318,290.1
	c0-3.7,3-6.7,6.7-6.7h182.7c6.8,0,9.3,8.9,3.5,12.5l-59.6,36.8c-1.1,0.7-2.3,1-3.5,1H324.7c-3.7,0-6.7-3-6.7-6.8V290.1z M449.7,760
	c-100,0-184-68.9-207-161.9c-0.7-2.8,0.5-5.7,3-7.2l33.2-20.5c4.2-2.6,9.6-0.1,10.4,4.7c11.9,67.8,65.8,121.2,133.9,132.3
	c103.9,17,189.3-58.2,189.3-163.4V368.6c0-2.4,1.2-4.6,3.2-5.8l37.1-23c4.3-2.7,9.9,0.4,9.9,5.5v201.5h0.1
	C662.9,664.6,567.4,760,449.7,760z M791.4,216.4l-501,309c-2.2,1.3-4.9,1.3-7.1,0l-43.6-27c-2-1.2-3.2-3.4-3.2-5.7V318.3
	c0-2.3,1.2-4.5,3.2-5.8l36.7-22.7c4.5-2.8,10.4,0.4,10.4,5.8v160.9c0,5.2,5.7,8.4,10.2,5.7L784,161.8c4.6-2.8,10.5,0.5,10.5,5.9
	l0.1,42.9C794.6,213,793.4,215.2,791.4,216.4z"/>
</svg>
