<?xml version="1.0" encoding="utf-8"?>
<!-- Generator: Adobe Illustrator 25.0.0, SVG Export Plug-In . SVG Version: 6.00 Build 0)  -->
<svg version="1.1" id="Camada_1" xmlns="http://www.w3.org/2000/svg" xmlns:xlink="http://www.w3.org/1999/xlink" x="0px" y="0px"
	 viewBox="0 0 933.3 933.3" style="enable-background:new 0 0 933.3 933.3;" xml:space="preserve">
<style type="text/css">
	.st0{fill:#E8E8E8;}
	.st1{fill:#74AC97;}
	.st2{fill:#2B4476;}
</style>
<path class="st0" d="M930.3,125.3c-3.3-15.6-6.9-25.2-14.5-40.3c-21.2-41.6-58.5-70.4-106.4-81.9c-9.5-2.3-26.4-2.4-338-2.7
	C291,0.3,141.7,0.5,139.4,0.8C119,3.3,103.3,8.1,85.1,17.5C55.6,32.6,32.7,55.5,17.6,85C10,100.1,6.4,109.7,3.1,125.3
	c-2.3,10.8-2.4,27.1-2.4,341.3S0.8,797.2,3.1,808c3.3,15.6,6.9,25.2,14.5,40.3c15.1,29.5,38,52.4,67.5,67.5
	c15.1,7.6,24.7,11.2,40.3,14.5c10.8,2.3,27.1,2.4,341.3,2.4s330.5-0.1,341.3-2.4c15.6-3.3,25.2-6.9,40.3-14.5
	c29.5-15.1,52.4-38,67.5-67.5c7.6-15.1,11.2-24.7,14.5-40.3c2.3-10.8,2.4-27.1,2.4-341.3S932.5,136.1,930.3,125.3z"/>
<g>
	<rect x="333.4" y="247.7" class="st1" width="342.1" height="20.5"/>
	<rect x="333.4" y="596.7" class="st1" width="296.9" height="20.5"/>
	<path class="st2" d="M707.3,431.3h-43.6c-12,0-21.8-9.8-21.8-21.8c0-12,9.8-21.8,21.8-21.8h43.6c12.1,0,21.8,9.8,21.8,21.8
		C729.1,421.5,719.4,431.3,707.3,431.3 M707.3,496.7h-43.6c-12,0-21.8-9.8-21.8-21.8c0-12,9.8-21.8,21.8-21.8h43.6
		c12.1,0,21.8,9.8,21.8,21.8C729.1,487,719.4,496.7,707.3,496.7 M707.3,562.2h-43.6c-12,0-21.8-9.8-21.8-21.8
		c0-12,9.8-21.8,21.8-21.8h43.6c12.1,0,21.8,9.8,21.8,21.8C729.1,552.4,719.4,562.2,707.3,562.2 M707.3,627.7h-43.6
		c-12,0-21.8-9.8-21.8-21.8c0-12.1,9.8-21.8,21.8-21.8h43.6c12.1,0,21.8,9.8,21.8,21.8C729.1,617.9,719.4,627.7,707.3,627.7
		 M735.9,442.2c18.2-15.7,20.2-43.2,4.5-61.3c-8.3-9.6-20.4-15.1-33.1-15h-21.8V224c0-42.2-34.2-76.3-76.4-76.4H389.6
		c-42.2,0.1-69.5,34.2-69.5,76.4v60.7c-6.6-4-14.1-6.1-21.8-6.1h-32.7c-6,0-10.9,4.9-10.9,10.9v344.7l-73.2,73.1l15.5,15.5
		l76.4-76.4c2-2.1,3.1-4.8,3.2-7.7V300.3h21.8c12,0,21.8,9.8,21.8,21.8v87.3c0,2,0.5,3.9,1.5,5.6l11,18.3
		c13.2,22.1,20.2,47.3,20.2,73v15.8c0,19.8-19.4,55.4-29.7,72.3l18.8,11.4c12.2-20.4,32.7-59.9,32.7-83.7v-15.8
		c0-29.7-8.1-58.8-23.3-84.2l-9.4-15.7V224c0-30.1,17.6-54.6,47.7-54.6h219.5c30.1,0,54.5,24.4,54.5,54.6v141.8
		c-24-0.1-43.5,19.3-43.6,43.3c0,12.7,5.4,24.8,15.1,33c-18.1,15.5-20.2,42.7-4.7,60.8c1.4,1.7,3,3.2,4.7,4.7
		c-18.1,15.5-20.2,42.7-4.7,60.8c1.4,1.7,3,3.2,4.7,4.7c-18.2,15.7-20.2,43.2-4.5,61.3c8.3,9.6,20.4,15.1,33.1,15.1v10.9
		c0,30.1-24.4,54.6-54.5,54.6H389.6c-30.1,0-47.7-24.4-47.7-54.6v-54.5l-18.8-11.4l-3,65.9c0,42.2,27.4,76.3,69.5,76.4h130.5
		l-57.8,57.7l15.5,15.5l73.1-73.2h58.2c42.2-0.1,76.3-34.2,76.4-76.4v-10.9h21.8c24,0.1,43.6-19.3,43.6-43.3
		c0-12.7-5.5-24.8-15.1-33.1c18.1-15.5,20.2-42.7,4.7-60.8c-1.4-1.7-3-3.2-4.7-4.7c18.1-15.5,20.2-42.7,4.7-60.8
		C739.1,445.2,737.6,443.6,735.9,442.2"/>
	<path class="st1" d="M477.9,198.1h43.6c6,0,10.9,4.9,10.9,10.9c0,6-4.9,10.9-10.9,10.9h-43.6c-6,0-10.9-4.9-10.9-10.9
		C467,203,471.9,198.1,477.9,198.1"/>
	<path class="st1" d="M499.8,655.2c-6.5,0-11.8,5.3-11.8,11.8c0,6.5,5.3,11.8,11.8,11.8c6.5,0,11.8-5.3,11.8-11.8
		C511.6,660.5,506.3,655.2,499.8,655.2 M499.8,699.3c-17.8,0-32.3-14.5-32.3-32.3c0-17.8,14.5-32.3,32.3-32.3
		c17.8,0,32.3,14.5,32.3,32.3C532.1,684.8,517.6,699.3,499.8,699.3"/>
</g>
</svg>
