<?xml version="1.0" encoding="utf-8"?>
<!-- Generator: Adobe Illustrator 25.0.0, SVG Export Plug-In . SVG Version: 6.00 Build 0)  -->
<svg version="1.1" id="Camada_1" xmlns="http://www.w3.org/2000/svg" xmlns:xlink="http://www.w3.org/1999/xlink" x="0px" y="0px"
	 viewBox="0 0 933.3 933.3" style="enable-background:new 0 0 933.3 933.3;" xml:space="preserve">
<style type="text/css">
	.st0{fill:#E8E8E8;}
	.st1{fill:#2B4476;}
	.st2{fill:#74AC97;}
</style>
<path class="st0" d="M930.3,125.3c-3.3-15.6-6.9-25.2-14.5-40.3c-21.2-41.6-58.5-70.4-106.4-81.9c-9.5-2.3-26.4-2.4-338-2.7
	C291,0.3,141.7,0.5,139.4,0.8C119,3.3,103.3,8.1,85.1,17.5C55.6,32.6,32.7,55.5,17.6,85C10,100.1,6.4,109.7,3.1,125.3
	c-2.3,10.8-2.4,27.1-2.4,341.3S0.8,797.2,3.1,808c3.3,15.6,6.9,25.2,14.5,40.3c15.1,29.5,38,52.4,67.5,67.5
	c15.1,7.6,24.7,11.2,40.3,14.5c10.8,2.3,27.1,2.4,341.3,2.4s330.5-0.1,341.3-2.4c15.6-3.3,25.2-6.9,40.3-14.5
	c29.5-15.1,52.4-38,67.5-67.5c7.6-15.1,11.2-24.7,14.5-40.3c2.3-10.8,2.4-27.1,2.4-341.3S932.5,136.1,930.3,125.3z"/>
<g>
	<path class="st1" d="M766.1,742.7c0,25.9-20.7,46.6-46.6,46.6H411.1c-25.9,0-46.6-20.7-46.6-46.6v-59c12.4,3.1,25.9,8.3,41.4,13.5
		c1,0,2.1,1,3.1,1h311.5c6.2,0,10.4-4.1,10.4-10.4V249c0-6.2-4.1-10.4-10.4-10.4H410c-16.6-5.2-31.1-10.3-46.6-13.5v-10.4
		c0-25.9,20.7-46.6,46.6-46.6h308.4c25.9,0,46.6,20.7,46.6,46.6v527.8H766.1z M711.2,677.5H420.4V259.4h290.8V677.5z M169.9,660.9
		V243.8c76.6-23.8,153.2-13.5,229.8,12.4v417.1c-14.5-5.2-29-9.3-42.4-12.4c-34.2-8.3-66.2-12.4-96.3-12.4
		C228.9,648.5,198.9,652.7,169.9,660.9 M719.5,147.6H411.1c-37.3,0-67.3,30-67.3,67.3v5.2c-68.3-15.5-130.4-13.5-187.3,7.2
		c-4.1,1-7.2,5.2-7.2,9.3v438.8c0,7.2,7.2,12.4,13.5,9.3c54.8-19.7,113.8-21.7,181.1-6.2v64.2c0,37.3,30,67.3,67.3,67.3h308.4
		c37.3,0,67.3-30,67.3-67.3V214.9C786.8,177.6,756.8,147.6,719.5,147.6"/>
	<path class="st2" d="M217.5,316.3c42.4-8.3,85.9-6.2,134.5,4.1c5.2,1,11.4-2.1,12.4-8.3c1-5.2-2.1-11.4-8.3-12.4
		c-51.7-11.4-98.3-12.4-142.8-4.1c-5.2,1-9.3,6.2-8.3,12.4C206.2,314.2,211.3,317.3,217.5,316.3"/>
	<path class="st2" d="M217.5,414.6c42.4-8.3,85.9-6.2,134.5,4.1c5.2,1,11.4-2.1,12.4-8.3c1-5.2-2.1-11.4-8.3-12.4
		c-51.7-11.4-98.3-12.4-142.8-4.1c-6.2,2.1-9.3,7.2-8.3,12.4C206.2,412.5,211.3,415.6,217.5,414.6"/>
	<path class="st2" d="M217.5,514c42.4-8.3,85.9-6.2,134.5,4.1c5.2,1,11.4-2.1,12.4-8.3c1-5.2-2.1-11.4-8.3-12.4
		c-51.7-11.4-98.3-12.4-142.8-4.1c-5.2,1-9.3,6.2-8.3,12.4C206.2,510.9,211.3,515,217.5,514"/>
	<path class="st2" d="M364.5,608.2c1-5.2-2.1-11.4-8.3-12.4c-51.7-11.4-98.3-12.4-142.8-4.1c-5.2,1-9.3,6.2-8.3,12.4
		c1,5.2,6.2,9.3,12.4,8.3c42.4-8.3,85.9-6.2,134.5,4.1h2.1C359.3,616.4,363.5,613.3,364.5,608.2"/>
	<path class="st2" d="M565.3,757.2c-7.2,0-13.5-6.2-13.5-13.5c0-7.2,6.2-13.5,13.5-13.5c7.2,0,13.5,6.2,13.5,13.5
		C578.7,751,572.5,757.2,565.3,757.2 M565.3,709.6c-18.6,0-34.2,15.5-34.2,34.2c0,18.6,15.5,34.1,34.2,34.1
		c18.6,0,34.2-15.5,34.2-34.1C599.4,725.1,583.9,709.6,565.3,709.6"/>
	<path class="st2" d="M591.2,193.1h-51.8c-6.2,0-10.4,4.1-10.4,10.4c0,6.2,4.1,10.3,10.4,10.3h51.8c6.2,0,10.4-4.1,10.4-10.3
		C601.5,197.3,597.4,193.1,591.2,193.1"/>
	<path class="st2" d="M478.3,345.3h173.9c6.2,0,10.4-4.1,10.4-10.4c0-6.2-4.1-10.3-10.4-10.3H478.3c-6.2,0-10.3,4.1-10.3,10.3
		C468,340.1,473.2,345.3,478.3,345.3"/>
	<path class="st2" d="M478.3,434.3h173.9c6.2,0,10.4-4.1,10.4-10.4c0-6.2-4.1-10.3-10.4-10.3H478.3c-6.2,0-10.3,4.1-10.3,10.3
		C468,430.1,473.2,434.3,478.3,434.3"/>
	<path class="st2" d="M478.3,523.3h173.9c6.2,0,10.4-4.1,10.4-10.4c0-6.2-4.1-10.3-10.4-10.3H478.3c-6.2,0-10.3,4.1-10.3,10.3
		C468,518.1,473.2,523.3,478.3,523.3"/>
	<path class="st2" d="M478.3,612.3h173.9c6.2,0,10.4-4.1,10.4-10.4c0-6.2-4.1-10.3-10.4-10.3H478.3c-6.2,0-10.3,4.1-10.3,10.3
		C468,607.1,473.2,612.3,478.3,612.3"/>
</g>
</svg>
